<svg xmlns="http://www.w3.org/2000/svg" viewBox="0 0 128 128">
  <!-- Highway shield shape -->
  <path d="M64 8 C40 8, 16 20, 12 48 C10 62, 14 78, 24 90 C34 102, 48 112, 64 120 C80 112, 94 102, 104 90 C114 78, 118 62, 116 48 C112 20, 88 8, 64 8Z" fill="#0f2a4a"/>
  <path d="M64 16 C44 16, 24 26, 20 50 C18 62, 22 76, 30 86 C39 96, 50 104, 64 112 C78 104, 89 96, 98 86 C106 76, 110 62, 108 50 C104 26, 84 16, 64 16Z" fill="#ffffff"/>
  <path d="M64 22 C46 22, 28 31, 25 52 C23 62, 27 74, 34 83 C42 92, 52 99, 64 106 C76 99, 86 92, 94 83 C101 74, 105 62, 103 52 C100 31, 82 22, 64 22Z" fill="#0f2a4a"/>
  <!-- "95" text -->
  <text x="64" y="76" font-family="Arial, Helvetica, sans-serif" font-size="48" font-weight="bold" fill="#ffffff" text-anchor="middle" dominant-baseline="central">95</text>
</svg>
